<?xml version="1.0" standalone="no"?><!DOCTYPE svg PUBLIC "-//W3C//DTD SVG 1.1//EN" "http://www.w3.org/Graphics/SVG/1.1/DTD/svg11.dtd"><svg t="1547112188176" class="icon" style="" viewBox="0 0 1024 1024" version="1.1" xmlns="http://www.w3.org/2000/svg" p-id="6335" xmlns:xlink="http://www.w3.org/1999/xlink" width="200" height="200"><defs><style type="text/css"></style></defs><path d="M512 544c-141.2 0-256-114.8-256-256S370.8 32 512 32s256 114.8 256 256-114.8 256-256 256z m0-448c-105.9 0-192 86.1-192 192s86.1 192 192 192 192-86.1 192-192S617.9 96 512 96zM960 832H640c-17.7 0-32-14.3-32-32s14.3-32 32-32h320c17.7 0 32 14.3 32 32s-14.3 32-32 32zM960 960H640c-17.7 0-32-14.3-32-32s14.3-32 32-32h320c17.7 0 32 14.3 32 32s-14.3 32-32 32z" p-id="6336"></path><path d="M64 992c-17.7 0-32-14.3-32-32 0-264.7 215.3-480 480-480 156.5 0 303.7 76.9 393.6 205.7 10.1 14.5 6.6 34.4-7.9 44.5-14.4 10.2-34.4 6.6-44.5-7.9C775.2 610.7 647.6 544 512 544 282.6 544 96 730.6 96 960c0 17.7-14.3 32-32 32z" p-id="6337"></path></svg>